<svg height="464pt" viewBox="0 0 464 464" width="464pt" xmlns="http://www.w3.org/2000/svg"><path d="m128 272c0 13.253906-10.746094 24-24 24s-24-10.746094-24-24 10.746094-24 24-24 24 10.746094 24 24zm0 0"/><path d="m384 127.878906c-26.769531-1.167968-51.921875-11.285156-72-28.917968-20.078125 17.632812-45.230469 27.75-72 28.917968v56.121094c0 39.703125 32.296875 72 72 72s72-32.296875 72-72zm-112 32.121094c-4.414062 0-8-3.585938-8-8s3.585938-8 8-8 8 3.585938 8 8-3.585938 8-8 8zm40 72c-17.648438 0-32-14.351562-32-32h16c0 8.824219 7.175781 16 16 16s16-7.175781 16-16h16c0 17.648438-14.351562 32-32 32zm40-72c-4.414062 0-8-3.585938-8-8s3.585938-8 8-8 8 3.585938 8 8-3.585938 8-8 8zm0 0"/><path d="m224 112h10.742188c27.050781 0 52.480468-10.527344 71.601562-29.65625l5.65625-5.65625 5.65625 5.65625c19.128906 19.128906 44.550781 29.65625 71.601562 29.65625h10.742188v16.808594c5.945312 1.214844 11.328125 3.855468 16 7.390625v-55.414063c0-19.832031-14.121094-37.058594-33.566406-40.945312l-2.378906-.480469-11.886719-11.886719c-17.71875-17.710937-41.289063-27.472656-66.34375-27.472656-51.734375 0-93.824219 42.089844-93.824219 93.824219v42.382812c4.671875-3.535156 10.054688-6.183593 16-7.390625zm0 0"/><path d="m344 276.6875v-10.800781c-9.9375 3.898437-20.703125 6.113281-32 6.113281s-22.0625-2.214844-32-6.113281v10.800781l32 32zm0 0"/><path d="m381.207031 298.167969-27.046875-9.015625-30.847656 30.847656 27.230469 27.230469zm0 0"/><path d="m51.710938 291.894531c.394531 1.035157.800781 2.035157 1.234374 3.027344l1.550782 3.460937-8.648438 17.296876 14.472656 14.472656 17.296876-8.648438 3.460937 1.550782c.992187.441406 1.992187.839843 3.027344 1.234374l3.542969 1.34375 6.121093 18.367188h20.46875l6.121094-18.367188 3.542969-1.34375c1.035156-.394531 2.035156-.800781 3.027344-1.234374l3.460937-1.550782 17.296875 8.648438 14.472656-14.472656-8.648437-17.296876 1.550781-3.460937c.441406-.992187.839844-1.992187 1.234375-3.027344l1.34375-3.542969 18.359375-6.121093v-20.46875l-18.367188-6.121094-1.34375-3.542969c-.394531-1.035156-.800781-2.035156-1.234374-3.027344l-1.550782-3.460937 8.648438-17.296875-14.472656-14.472656-17.296876 8.648437-3.460937-1.550781c-.992187-.441406-1.992187-.839844-3.027344-1.234375l-3.542969-1.34375-6.121093-18.359375h-20.46875l-6.121094 18.367188-3.542969 1.34375c-1.035156.394531-2.035156.800781-3.027344 1.234374l-3.460937 1.550782-17.296875-8.648438-14.464844 14.472656 8.648438 17.296876-1.550782 3.460937c-.441406.992187-.839843 1.992187-1.234374 3.027344l-1.34375 3.542969-18.367188 6.121093v20.46875l18.367188 6.121094zm52.289062-59.894531c22.054688 0 40 17.945312 40 40s-17.945312 40-40 40-40-17.945312-40-40 17.945312-40 40-40zm0 0"/><path d="m242.785156 298.167969 30.671875 49.0625 27.230469-27.230469-30.847656-30.847656zm0 0"/><path d="m302.9375 376-5.714844 40h29.554688l-5.714844-40zm0 0"/><path d="m297.152344 346.160156 4.617187 13.839844h20.460938l4.617187-13.839844-14.847656-14.847656zm0 0"/><path d="m400 184c0 2.238281-.167969 4.433594-.335938 6.632812 9.464844-3.21875 16.335938-12.097656 16.335938-22.632812 0-10.414062-6.710938-19.214844-16-22.527344zm0 0"/><path d="m436.648438 316.648438-39.824219-13.273438-43.367188 69.394531-13.960937-13.960937-3.304688 9.925781 6.753906 47.265625h121.054688v-61.40625c0-17.242188-10.992188-32.488281-27.351562-37.945312zm0 0"/><path d="m136 432h-64v16h-16v16h96v-16h-16zm0 0"/><path d="m270.542969 372.769531-43.367188-69.394531-3.175781 1.058594v111.566406h57.054688l6.761718-47.265625-3.3125-9.925781zm0 0"/><path d="m200 280h-8v13.769531l-19.648438 6.542969 9.265626 18.519531-30.785157 30.785157-18.519531-9.265626-6.542969 19.648438h-43.53125l-6.542969-19.648438-18.519531 9.265626-30.785156-30.785157 9.265625-18.519531-19.65625-6.542969v-13.769531h-8c-4.414062 0-8 3.585938-8 8v96h208v-96c0-4.414062-3.585938-8-8-8zm0 0"/><path d="m0 408c0 4.414062 3.585938 8 8 8h192c4.414062 0 8-3.585938 8-8v-8h-208zm0 0"/><path d="m224 184v-38.527344c-9.289062 3.3125-16 12.113282-16 22.527344 0 10.535156 6.871094 19.414062 16.335938 22.632812-.167969-2.199218-.335938-4.394531-.335938-6.632812zm0 0"/></svg>